# xmcd CD database file
#
# Track frame offsets:
#	150
#	23688
#	38538
#	54387
#	72106
#	93999
#	115303
#	126450
#	140891
#	158446
#	174365
#	188360
#
# Disc length: 2768 seconds
#
# Revision: 1
# Processed by: cddbd v1.4PL0 Copyright (c) Steve Scherf et al.
# Submitted via: jetAudio 5
#
DISCID=940ace0c
DTITLE=Two High String Band - InSoFarAsMuch
DYEAR=1900
DGENRE=
TTITLE0=Insofarasmuch
TTITLE1=Bunkhouse Blues
TTITLE2=Sonny's Ride
TTITLE3=Alabama Blues
TTITLE4=All Day
TTITLE5=Somewhere Between
TTITLE6=Thanks Norman
TTITLE7=You Can't Run Away From Your Feet
TTITLE8=Dang, Howdy!
TTITLE9=Old Grey Mare
TTITLE10=The Old Place
TTITLE11=River's Risin'
EXTD=
EXTT0=
EXTT1=
EXTT2=
EXTT3=
EXTT4=
EXTT5=
EXTT6=
EXTT7=
EXTT8=
EXTT9=
EXTT10=
EXTT11=
PLAYORDER=
